# Blender v2.90.1 OBJ File: ''
# www.blender.org
mtllib sphere4.mtl
o sphere_Sphere.004
v 0.079001 0.157293 -0.105379
v 0.023120 -0.126559 -0.157658
v 0.008224 0.130788 -0.157320
v 0.009273 -0.181367 -0.090353
v 0.023289 -0.000473 -0.206008
v 0.003042 0.200573 0.031096
v 0.048156 0.192606 -0.043495
v 0.083702 -0.083527 -0.167880
v 0.129702 0.059759 -0.150680
v 0.099104 -0.156467 -0.082743
v 0.084466 -0.185604 -0.016240
v 0.146032 -0.082925 -0.118504
v 0.201278 -0.022753 -0.041218
v 0.182174 0.059406 -0.067444
v 0.144392 0.141519 -0.022187
v 0.166338 -0.114044 -0.022743
v 0.109234 -0.163306 0.063376
v 0.171562 -0.062971 0.095771
v 0.191564 0.063737 0.046625
v 0.098911 0.173430 0.041226
v 0.140661 0.080003 0.126185
v 0.043285 0.162413 0.116158
v 0.096190 -0.016517 0.179018
v 0.068593 -0.122425 0.148573
v 0.041889 0.095520 0.177762
v -0.015143 -0.186428 0.078176
v 0.002108 -0.027717 0.204791
v -0.079103 -0.029191 0.189593
v -0.005458 -0.142371 0.145915
v -0.033981 0.093480 0.176143
v -0.075464 0.172539 0.084091
v -0.099977 -0.137855 0.113788
v -0.113722 0.087237 0.145801
v -0.077978 -0.187716 0.017334
v -0.155186 -0.071568 0.114933
v -0.174666 0.029486 0.099420
v -0.160572 0.114565 0.046514
v -0.194274 -0.055454 0.025905
v -0.128753 0.156252 -0.029686
v -0.165447 -0.119892 -0.021660
v -0.198462 0.054612 0.003280
v -0.045085 0.195140 -0.031415
v -0.188516 -0.003102 -0.079190
v -0.077024 -0.164552 -0.097440
v -0.148134 -0.041705 -0.138195
v -0.147436 0.087001 -0.111407
v 0.007929 -0.203005 -0.008023
v -0.127015 -0.123206 -0.101877
v -0.072458 0.061472 -0.182740
v -0.043024 0.167655 -0.109310
v -0.053953 -0.079220 -0.181022
vt 0.745349 0.713609
vt 0.811181 0.806830
vt 0.647053 0.767232
vt 0.891106 0.908254
vt 0.290616 0.935257
vt 0.608899 0.891828
vt 0.730478 0.496389
vt 0.681987 0.365196
vt 0.728591 0.283944
vt 0.636835 0.591558
vt 0.608162 0.222305
vt 0.609095 0.365700
vt 0.536907 0.146317
vt 0.735371 0.157990
vt 0.533470 0.456677
vt 0.522505 0.738506
vt 0.522679 0.307728
vt 0.555725 0.593380
vt 0.466343 0.599140
vt 0.416240 0.402318
vt 0.401873 0.222640
vt 0.437473 0.823757
vt 0.383759 0.624420
vt 0.329915 0.474996
vt 0.306074 0.790916
vt 0.288494 0.645802
vt 0.220534 0.128831
vt 0.248857 0.038199
vt 0.315672 0.292726
vt 0.236505 0.252352
vt 0.258383 0.463652
vt 0.220441 0.651793
vt 0.189087 0.453045
vt 0.128893 0.814439
vt 0.136360 0.260688
vt 0.144035 0.641431
vt 0.044294 0.132443
vt 0.045018 0.688754
vt 0.103940 0.389617
vt 0.082611 0.546957
vt 0.025239 0.411438
vt 0.012834 0.603876
vt 0.005894 0.295508
vt 0.008287 0.890181
vt 0.006696 0.762618
vt 0.974803 0.304591
vt 0.859156 0.200092
vt 0.980964 0.142073
vt 0.936157 0.496806
vt 0.879273 0.433627
vt 0.958098 0.771385
vt 0.897608 0.637074
vt 0.988648 0.565503
vt 0.610778 0.057942
vt 0.890593 0.295497
vt 0.798863 0.380862
vt 0.808508 0.587892
vt 0.993220 0.420842
vn 0.0883 0.8334 -0.5456
vn 0.0144 0.9951 -0.0976
vn 0.0964 -0.3565 -0.9293
vn 0.2605 0.3619 -0.8951
vn 0.3688 -0.6718 -0.6423
vn 0.4829 -0.0501 -0.8742
vn 0.6181 -0.1049 -0.7790
vn 0.2780 -0.9008 -0.3335
vn 0.8250 -0.0328 -0.5642
vn 0.4956 0.8373 -0.2308
vn 0.6381 -0.7470 -0.1868
vn 0.8648 -0.3940 -0.3114
vn 0.8849 0.4569 -0.0902
vn 0.9357 -0.3371 0.1040
vn 0.7995 -0.5637 0.2077
vn 0.7415 0.6367 0.2114
vn 0.2662 0.9621 0.0583
vn 0.7131 0.6186 0.3298
vn 0.7467 0.0199 0.6649
vn 0.4417 0.6028 0.6645
vn 0.2048 -0.9496 0.2374
vn 0.2081 -0.8394 0.5021
vn 0.2155 -0.8324 0.5106
vn 0.0921 -0.4597 0.8833
vn -0.1842 0.1738 0.9674
vn -0.0372 0.9051 0.4236
vn -0.2991 -0.5067 0.8086
vn -0.3154 0.6450 0.6961
vn -0.1289 -0.9796 0.1539
vn -0.3400 -0.8648 0.3695
vn -0.6293 0.6206 0.4678
vn -0.9169 -0.1182 0.3812
vn -0.8887 0.3391 0.3086
vn -0.9698 0.0131 0.2435
vn -0.7999 -0.5444 0.2527
vn -0.2620 0.9578 0.1185
vn -0.8303 0.5556 -0.0428
vn -0.5558 -0.8139 -0.1689
vn -0.8639 -0.3493 -0.3627
vn -0.8357 0.4982 -0.2311
vn -0.9007 0.2974 -0.3167
vn -0.2272 -0.9542 -0.1945
vn -0.7753 0.1327 -0.6175
vn -0.4055 0.8586 -0.3137
vn -0.5126 -0.4568 -0.7271
vn -0.4148 -0.5770 -0.7036
vn -0.2758 0.5973 -0.7531
vn -0.1860 -0.6614 -0.7266
vn -0.2642 -0.0465 -0.9633
vn 0.0629 -0.3574 -0.9318
vn 0.0898 0.8836 -0.4595
vn 0.3573 0.5398 -0.7622
vn 0.2633 -0.7739 -0.5760
vn 0.1896 -0.9504 -0.2467
vn 0.4936 -0.6143 -0.6156
vn 0.6966 0.5666 -0.4401
vn 0.8457 0.0265 -0.5330
vn 0.7031 -0.6189 -0.3502
vn 0.6998 0.5638 -0.4387
vn 0.9761 0.1989 -0.0879
vn 0.4827 0.8709 -0.0921
vn 0.6584 -0.7527 0.0060
vn 0.9787 -0.0814 0.1884
vn 0.2372 -0.9521 0.1929
vn 0.8467 0.0709 0.5273
vn 0.5309 0.6876 0.4952
vn 0.6105 -0.5601 0.5600
vn 0.2293 0.9240 0.3061
vn 0.5821 -0.3611 0.7285
vn 0.4787 0.2415 0.8441
vn 0.2858 -0.3328 0.8986
vn 0.2474 0.1307 0.9600
vn -0.1572 -0.4429 0.8827
vn -0.0268 0.2224 0.9746
vn -0.1390 0.6724 0.7270
vn -0.0343 0.7505 0.6600
vn -0.3617 0.2321 0.9029
vn -0.2265 -0.8014 0.5536
vn -0.4995 -0.4291 0.7526
vn -0.6546 0.0878 0.7509
vn -0.6936 -0.0232 0.7200
vn -0.7677 0.4252 0.4793
vn -0.6054 0.7771 0.1723
vn -0.7366 -0.6183 0.2741
vn -0.6574 -0.7200 0.2223
vn -0.4194 0.9053 0.0668
vn -0.9952 -0.0547 -0.0817
vn -0.9408 -0.2799 -0.1910
vn -0.8372 -0.3885 -0.3850
vn -0.6022 -0.7557 -0.2573
vn -0.5326 0.7018 -0.4730
vn -0.6519 0.1579 -0.7417
vn -0.4421 0.5899 -0.6758
vn -0.1650 -0.9532 -0.2532
vn -0.4354 -0.0682 -0.8977
vn -0.0175 0.9427 -0.3331
vn -0.0959 -0.7621 -0.6403
vn -0.0031 0.3475 -0.9377
usemtl green.004
s off
f 3/1/1 50/2/1 1/3/1
f 42/4/2 6/5/2 7/6/2
f 5/7/3 8/8/3 2/9/3
f 3/1/4 9/10/4 5/7/4
f 8/8/5 10/11/5 2/9/5
f 5/7/6 9/10/6 8/8/6
f 8/8/7 9/10/7 12/12/7
f 10/11/8 11/13/8 4/14/8
f 9/10/9 13/15/9 12/12/9
f 7/6/10 15/16/10 1/3/10
f 16/17/11 11/13/11 10/11/11
f 13/15/12 16/17/12 12/12/12
f 14/18/13 15/16/13 19/19/13
f 13/15/14 18/20/14 16/17/14
f 16/17/15 18/20/15 17/21/15
f 20/22/16 19/19/16 15/16/16
f 7/6/17 6/5/17 20/22/17
f 20/22/18 21/23/18 19/19/18
f 18/20/19 21/23/19 23/24/19
f 21/23/20 22/25/20 25/26/20
f 17/21/21 26/27/21 47/28/21
f 24/29/22 29/30/22 17/21/22
f 17/21/23 29/30/23 26/27/23
f 27/31/24 29/30/24 24/29/24
f 27/31/25 30/32/25 28/33/25
f 6/5/26 31/34/26 22/25/26
f 28/33/27 32/35/27 29/30/27
f 30/32/28 31/34/28 33/36/28
f 47/28/29 26/27/29 34/37/29
f 26/27/30 32/35/30 34/37/30
f 33/36/31 31/34/31 37/38/31
f 35/39/32 36/40/32 38/41/32
f 37/38/33 41/42/33 36/40/33
f 36/40/34 41/42/34 38/41/34
f 38/41/35 40/43/35 35/39/35
f 6/5/36 42/44/36 31/34/36
f 37/38/37 39/45/37 41/42/37
f 40/46/38 44/47/38 34/48/38
f 43/49/39 45/50/39 40/46/39
f 39/51/40 46/52/40 41/53/40
f 41/53/41 46/52/41 43/49/41
f 34/48/42 44/47/42 47/54/42
f 46/52/43 45/50/43 43/49/43
f 42/4/44 50/2/44 39/51/44
f 48/55/45 45/50/45 51/56/45
f 51/56/46 44/47/46 48/55/46
f 50/2/47 3/1/47 49/57/47
f 44/47/48 51/56/48 2/9/48
f 49/57/49 5/7/49 51/56/49
f 5/7/50 2/9/50 51/56/50
f 1/3/51 50/2/51 7/6/51
f 3/1/52 1/3/52 9/10/52
f 2/9/53 10/11/53 4/14/53
f 47/54/54 4/14/54 11/13/54
f 10/11/55 8/8/55 12/12/55
f 1/3/56 15/16/56 9/10/56
f 13/15/57 9/10/57 14/18/57
f 10/11/58 12/12/58 16/17/58
f 14/18/59 9/10/59 15/16/59
f 13/15/60 14/18/60 19/19/60
f 7/6/61 20/22/61 15/16/61
f 16/17/62 17/21/62 11/13/62
f 13/15/63 19/19/63 18/20/63
f 47/28/64 11/13/64 17/21/64
f 18/20/65 19/19/65 21/23/65
f 20/22/66 22/25/66 21/23/66
f 17/21/67 18/20/67 24/29/67
f 20/22/68 6/5/68 22/25/68
f 18/20/69 23/24/69 24/29/69
f 21/23/70 25/26/70 23/24/70
f 23/24/71 27/31/71 24/29/71
f 23/24/72 25/26/72 27/31/72
f 29/30/73 27/31/73 28/33/73
f 27/31/74 25/26/74 30/32/74
f 25/26/75 22/25/75 31/34/75
f 25/26/76 31/34/76 30/32/76
f 28/33/77 30/32/77 33/36/77
f 29/30/78 32/35/78 26/27/78
f 32/35/79 28/33/79 35/39/79
f 28/33/80 33/36/80 36/40/80
f 28/33/81 36/40/81 35/39/81
f 36/40/82 33/36/82 37/38/82
f 37/38/83 31/34/83 39/45/83
f 32/35/84 35/39/84 40/43/84
f 32/35/85 40/43/85 34/37/85
f 39/45/86 31/34/86 42/44/86
f 38/58/87 41/53/87 43/49/87
f 38/58/88 43/49/88 40/46/88
f 40/46/89 45/50/89 48/55/89
f 40/46/90 48/55/90 44/47/90
f 39/51/91 50/2/91 46/52/91
f 46/52/92 49/57/92 45/50/92
f 46/52/93 50/2/93 49/57/93
f 47/54/94 44/47/94 4/14/94
f 45/50/95 49/57/95 51/56/95
f 42/4/96 7/6/96 50/2/96
f 44/47/97 2/9/97 4/14/97
f 49/57/98 3/1/98 5/7/98
