# Blender v2.90.1 OBJ File: ''
# www.blender.org
mtllib sphere3.mtl
o sphere_Sphere.003
v 0.056797 0.149320 -0.125011
v 0.023120 -0.126559 -0.157658
v -0.015222 0.140914 -0.144613
v 0.031763 0.105842 -0.169367
v 0.009273 -0.181367 -0.090353
v 0.046088 0.037275 -0.194317
v -0.002090 0.201383 0.010813
v 0.003025 -0.031474 -0.200878
v 0.032039 0.190513 -0.058724
v 0.075079 -0.060748 -0.178140
v 0.077432 -0.121825 -0.140398
v 0.094154 0.069066 -0.164517
v 0.099104 -0.156467 -0.082743
v 0.114126 -0.002569 -0.165591
v 0.032861 -0.198921 0.007638
v 0.124589 0.105500 -0.119012
v 0.149093 0.039516 -0.130740
v 0.062475 -0.188287 -0.036729
v 0.131898 -0.062986 -0.140720
v 0.107688 0.152202 -0.077038
v 0.149347 -0.105629 -0.087451
v 0.178108 -0.027365 -0.090587
v 0.182174 0.059406 -0.067444
v 0.062048 0.190639 -0.023519
v 0.144392 0.141519 -0.022187
v 0.166338 -0.114044 -0.022743
v 0.201499 -0.026449 -0.012491
v 0.198115 0.036710 0.003641
v 0.102478 -0.174100 0.009185
v 0.136177 -0.136283 0.064095
v 0.181243 -0.064745 0.064671
v 0.003632 -0.199103 0.024858
v 0.126133 0.148206 0.053703
v 0.172216 0.104415 0.025459
v 0.184271 0.038166 0.075390
v 0.081412 0.181547 0.035426
v 0.136500 0.104199 0.106972
v 0.070862 -0.173454 0.075278
v 0.135566 0.048543 0.142099
v 0.163308 -0.020532 0.115884
v 0.140557 -0.079382 0.121532
v 0.065645 0.157203 0.109722
v 0.118130 -0.011300 0.163563
v 0.010735 0.192368 0.059124
v 0.083442 -0.106166 0.151127
v 0.051945 -0.135559 0.141777
v 0.075017 0.094524 0.161249
v 0.080259 -0.021416 0.185240
v 0.015690 0.128344 0.154657
v -0.015143 -0.186428 0.078176
v 0.031350 -0.061351 0.189875
v 0.049917 0.065081 0.186093
v -0.007784 -0.159002 0.124281
v 0.012502 0.164720 0.115889
v -0.009085 0.010206 0.201900
v -0.045279 -0.063595 0.187089
v -0.020843 -0.114645 0.164102
v -0.033981 0.093480 0.176143
v -0.059070 0.151389 0.119961
v -0.066369 0.012155 0.189797
v -0.083313 -0.127186 0.133575
v -0.113142 0.101919 0.134898
v -0.108305 0.066956 0.157386
v -0.059109 0.185860 0.053357
v -0.112721 -0.008953 0.168071
v -0.051741 -0.194591 0.009168
v -0.124436 -0.087596 0.133102
v -0.158073 -0.032521 0.121657
v -0.104691 -0.152217 0.082005
v -0.104825 0.156919 0.072732
v -0.174666 0.029486 0.099420
v -0.157027 -0.099162 0.078240
v -0.160572 0.114565 0.046514
v -0.096206 -0.176672 0.024084
v -0.194274 -0.055454 0.025905
v -0.110693 0.168643 -0.002025
v -0.145469 -0.141769 -0.004374
v -0.022255 0.197660 -0.029164
v -0.197175 0.035253 0.031232
v -0.064880 0.188045 -0.034871
v -0.177134 -0.090701 -0.035762
v -0.133490 0.146278 -0.046096
v -0.186799 0.074149 -0.025400
v -0.196626 -0.007062 -0.045055
v -0.077822 -0.176825 -0.057973
v -0.124725 -0.138179 -0.079679
v -0.173808 0.002270 -0.103244
v -0.160652 -0.060490 -0.107413
v -0.159381 0.067311 -0.105509
v -0.127869 0.105415 -0.115713
v -0.012116 -0.199226 -0.029696
v -0.119804 -0.101849 -0.126156
v -0.121202 -0.020524 -0.161223
v -0.069936 0.149885 -0.116426
v -0.108356 0.041659 -0.164227
v -0.062955 0.097920 -0.166418
v -0.055602 -0.144529 -0.130288
v -0.018288 0.179762 -0.088923
v -0.058437 -0.103442 -0.164555
v -0.060306 -0.037562 -0.188218
v -0.051049 0.031923 -0.193023
vt 0.764627 0.744432
vt 0.781103 0.851909
vt 0.681126 0.764460
vt 0.855693 0.940340
vt 0.301221 0.957923
vt 0.668264 0.893993
vt 0.746341 0.445575
vt 0.688727 0.402342
vt 0.728591 0.283944
vt 0.710965 0.558894
vt 0.720544 0.673951
vt 0.669390 0.295777
vt 0.669375 0.608389
vt 0.608162 0.222305
vt 0.652236 0.496973
vt 0.624336 0.675141
vt 0.585245 0.120448
vt 0.489653 0.064016
vt 0.834916 0.060316
vt 0.628554 0.397130
vt 0.614102 0.563613
vt 0.735371 0.157990
vt 0.601429 0.770943
vt 0.586226 0.328758
vt 0.576187 0.456928
vt 0.555725 0.593380
vt 0.543723 0.889452
vt 0.483562 0.174865
vt 0.511681 0.456549
vt 0.522505 0.738506
vt 0.522679 0.307728
vt 0.472343 0.663378
vt 0.445638 0.394457
vt 0.476560 0.000000
vt 0.277630 0.039919
vt 0.432432 0.268847
vt 0.435270 0.763664
vt 0.437806 0.559212
vt 0.498230 0.559526
vt 0.438589 0.854224
vt 0.396522 0.670167
vt 0.368429 0.172069
vt 0.402242 0.468925
vt 0.385479 0.368852
vt 0.369116 0.571937
vt 0.351617 0.489036
vt 0.338576 0.780654
vt 0.275240 0.902396
vt 0.330162 0.328524
vt 0.301114 0.256761
vt 0.318707 0.659995
vt 0.315886 0.465920
vt 0.290039 0.596923
vt 0.220534 0.128831
vt 0.241847 0.213490
vt 0.265544 0.714845
vt 0.263713 0.804291
vt 0.243909 0.517269
vt 0.275802 0.399127
vt 0.210929 0.395863
vt 0.229166 0.305733
vt 0.220441 0.651793
vt 0.196260 0.521017
vt 0.114825 0.876217
vt 0.160944 0.285759
vt 0.178812 0.771398
vt 0.136519 0.672128
vt 0.043728 0.083458
vt 0.104962 0.228670
vt 0.153940 0.600979
vt 0.156331 0.485153
vt 0.128110 0.361751
vt 0.095430 0.780656
vt 0.044739 0.170928
vt 0.082611 0.546957
vt 0.105306 0.448704
vt 0.071925 0.337400
vt 0.045018 0.688754
vt 0.051608 0.017585
vt 0.025239 0.411438
vt 0.024733 0.556370
vt 0.018814 0.809778
vt 0.011760 0.262932
vt 0.008287 0.890181
vt 0.000000 0.736559
vt 0.000000 0.328240
vt 0.000000 0.655117
vt 0.976403 0.619299
vt 0.963169 0.489442
vt 1.000000 0.515629
vt 0.981786 0.261014
vt 0.898936 0.158271
vt 0.991373 0.192185
vt 0.967786 0.348377
vt 0.907539 0.264928
vt 0.906171 0.403020
vt 0.943454 0.748333
vt 0.910576 0.604043
vt 0.914317 0.502760
vt 0.967716 0.078289
vt 0.850083 0.466842
vt 0.923768 0.878662
vt 0.840118 0.763461
vt 0.882725 0.674983
vt 0.840682 0.565510
vt 0.869580 0.333403
vt 0.816578 0.244856
vt 0.798790 0.337638
vt 0.809455 0.649297
vt 0.788135 0.547794
vt 0.798970 0.444845
vt 0.993220 0.420842
vt 0.988186 0.937500
vt 0.984599 0.813103
vn 0.0591 0.8203 -0.5689
vn 0.0629 0.9903 -0.1240
vn 0.1307 -0.3872 -0.9127
vn 0.2710 -0.0782 -0.9594
vn 0.1196 0.6744 -0.7286
vn 0.3023 -0.4926 -0.8161
vn 0.2924 0.3804 -0.8774
vn 0.2483 -0.7863 -0.5658
vn 0.3660 -0.0452 -0.9295
vn 0.4198 0.5506 -0.7216
vn 0.4534 0.1396 -0.8803
vn 0.1298 -0.9804 -0.1483
vn 0.5358 -0.1818 -0.8245
vn 0.6207 0.3548 -0.6992
vn 0.2766 -0.8792 -0.3879
vn 0.3333 0.8516 -0.4047
vn 0.5755 -0.5361 -0.6176
vn 0.7558 -0.0633 -0.6517
vn 0.7669 0.3771 -0.5193
vn 0.1124 0.9887 -0.0994
vn 0.5061 -0.8434 -0.1804
vn 0.9574 0.0317 -0.2871
vn 0.5065 0.8444 -0.1745
vn 0.6292 -0.7587 -0.1686
vn 0.9019 -0.3293 -0.2796
vn 0.8690 0.4755 -0.1372
vn 0.9244 -0.3775 0.0553
vn 0.0065 -1.0000 0.0004
vn 0.8353 -0.5275 0.1550
vn 0.7199 0.6848 0.1129
vn 0.9371 0.3022 0.1747
vn 0.2073 0.9748 0.0823
vn 0.8286 0.4253 0.3642
vn 0.5109 -0.8218 0.2524
vn 0.9223 -0.0668 0.3807
vn 0.7486 0.5753 0.3296
vn 0.8151 -0.2657 0.5148
vn 0.7884 0.3188 0.5261
vn 0.6914 -0.2007 0.6940
vn 0.4570 0.8120 0.3630
vn 0.7287 0.0330 0.6841
vn 0.1926 0.9726 0.1304
vn 0.4866 -0.6913 0.5341
vn 0.4741 0.6004 0.6440
vn 0.5333 -0.3102 0.7870
vn 0.4810 0.2885 0.8279
vn 0.1525 -0.9501 0.2721
vn 0.4599 0.1527 0.8747
vn 0.1736 -0.8336 0.5244
vn 0.1462 -0.8603 0.4884
vn 0.2059 0.5225 0.8274
vn 0.1740 -0.9425 0.2853
vn 0.1750 0.8873 0.4267
vn 0.1563 -0.0771 0.9847
vn -0.0304 -0.1823 0.9828
vn 0.1110 -0.5187 0.8477
vn 0.0399 -0.6610 0.7493
vn 0.0536 0.4675 0.8824
vn -0.1931 0.2368 0.9522
vn -0.1192 0.8912 0.4378
vn -0.2946 -0.5060 0.8107
vn -0.3263 0.5816 0.7452
vn -0.1318 -0.9738 0.1851
vn -0.2874 -0.8095 0.5120
vn -0.4747 0.1497 0.8673
vn -0.4747 -0.2976 0.8283
vn -0.3448 0.8336 0.4316
vn -0.2846 -0.9227 0.2601
vn -0.5882 -0.6045 0.5372
vn -0.7182 0.3034 0.6262
vn -0.3250 -0.8874 0.3270
vn -0.7675 -0.3583 0.5315
vn -0.6651 0.6012 0.4429
vn -0.0890 -0.9956 0.0280
vn -0.9203 -0.1119 0.3748
vn -0.8821 0.3454 0.3204
vn -0.9497 -0.0485 0.3094
vn -0.4736 0.8637 0.1726
vn -0.8357 -0.5269 0.1548
vn -0.2350 0.9712 0.0394
vn -0.7238 0.6896 0.0245
vn -0.8620 -0.5045 0.0488
vn -0.8085 0.5874 -0.0353
vn -0.9104 0.3995 0.1075
vn -0.9865 0.1399 -0.0847
vn -0.5283 -0.8410 -0.1168
vn -0.7538 -0.6130 -0.2369
vn -0.9158 -0.2485 -0.3154
vn -0.8038 0.5028 -0.3180
vn -0.9231 0.1932 -0.3324
vn -0.2600 -0.9537 -0.1514
vn -0.7075 0.1328 -0.6941
vn -0.4423 0.8226 -0.3575
vn -0.6329 0.3367 -0.6971
vn -0.4795 -0.6660 -0.5714
vn -0.5035 -0.3494 -0.7902
vn -0.4380 -0.5934 -0.6753
vn -0.3920 0.2823 -0.8756
vn -0.1729 0.9403 -0.2931
vn -0.1619 0.8051 -0.5706
vn -0.2606 0.6509 -0.7130
vn -0.1175 -0.6408 -0.7586
vn -0.1920 -0.0422 -0.9805
vn -0.0327 0.3686 -0.9290
vn -0.0191 0.1069 -0.9941
vn -0.0427 -0.4209 -0.9061
vn 0.1122 0.8622 -0.4939
vn 0.3792 0.5447 -0.7480
vn 0.2633 -0.7739 -0.5760
vn 0.1184 -0.9631 -0.2418
vn 0.4794 -0.4479 -0.7547
vn 0.5820 0.1742 -0.7943
vn 0.7393 -0.0587 -0.6708
vn 0.4855 0.6750 -0.5556
vn 0.5566 -0.6030 -0.5715
vn 0.3667 0.8751 -0.3157
vn 0.7988 -0.3141 -0.5131
vn 0.7195 0.5898 -0.3666
vn 0.8712 0.0880 -0.4830
vn 0.6731 -0.6899 -0.2665
vn 0.7575 0.5459 -0.3580
vn 0.9013 -0.3419 -0.2659
vn 0.9211 0.3798 -0.0853
vn 0.9772 0.1002 -0.1872
vn 0.5124 0.8580 -0.0360
vn 0.6998 -0.7118 0.0608
vn 0.5784 0.8129 0.0675
vn 0.3359 -0.9419 -0.0016
vn 0.9819 0.0042 0.1894
vn 0.9720 -0.0525 0.2291
vn 0.3279 -0.9300 0.1659
vn 0.7653 -0.4855 0.4226
vn 0.8109 0.1073 0.5753
vn 0.5400 0.6975 0.4711
vn 0.5712 -0.6045 0.5553
vn 0.4856 -0.6929 0.5330
vn 0.2552 0.9015 0.3495
vn 0.5556 0.4371 0.7073
vn 0.5451 -0.2954 0.7846
vn 0.4761 0.1707 0.8627
vn 0.1797 0.7247 0.6652
vn 0.2815 0.6341 0.7202
vn 0.3578 -0.3371 0.8708
vn 0.2070 -0.4910 0.8462
vn 0.2041 0.0620 0.9770
vn -0.0208 -0.4187 0.9079
vn -0.0148 0.2914 0.9565
vn -0.0955 0.7220 0.6853
vn -0.1410 0.6572 0.7404
vn -0.2088 -0.0930 0.9735
vn -0.1379 0.8796 0.4553
vn -0.2033 -0.6866 0.6981
vn -0.3692 0.4661 0.8040
vn -0.3282 0.2820 0.9015
vn -0.3692 -0.1357 0.9194
vn -0.2752 -0.8063 0.5236
vn -0.1079 0.9717 0.2100
vn -0.4185 -0.4251 0.8026
vn -0.6335 -0.2336 0.7376
vn -0.4792 0.6882 0.5448
vn -0.6950 0.1397 0.7053
vn -0.7271 0.0509 0.6846
vn -0.6337 -0.5896 0.5008
vn -0.7718 0.4230 0.4747
vn -0.8767 -0.2722 0.3966
vn -0.6452 0.7455 0.1675
vn -0.6983 -0.6712 0.2485
vn -0.6443 -0.7338 0.2154
vn -0.3610 0.9314 0.0467
vn -0.9994 -0.0326 0.0109
vn -0.9622 -0.2388 -0.1309
vn -0.3974 -0.9135 -0.0873
vn -0.2228 0.9746 0.0216
vn -0.9237 0.1920 -0.3314
vn -0.9089 -0.1651 -0.3829
vn -0.4900 0.8531 -0.1795
vn -0.7759 -0.4974 -0.3882
vn -0.7617 0.5301 -0.3726
vn -0.5685 -0.7993 -0.1947
vn -0.7251 -0.5032 -0.4701
vn -0.7579 -0.1162 -0.6420
vn -0.5452 0.7030 -0.4566
vn -0.7239 0.1167 -0.6800
vn -0.6396 -0.3136 -0.7018
vn -0.2969 0.8718 -0.3895
vn -0.4567 0.5842 -0.6710
vn -0.4185 -0.7744 -0.4745
vn -0.5343 0.4022 -0.7435
vn -0.1724 -0.9268 -0.3337
vn -0.2133 -0.8660 -0.4523
vn -0.4566 -0.3122 -0.8331
vn -0.4419 0.0480 -0.8958
vn -0.4073 -0.0089 -0.9132
vn -0.1532 -0.3379 -0.9286
vn -0.0312 0.9569 -0.2887
vn -0.0455 -0.7700 -0.6364
vn -0.0570 0.3309 -0.9420
vn -0.0694 0.5115 -0.8565
usemtl green.003
s off
f 3/1/1 98/2/1 1/3/1
f 78/4/2 7/5/2 9/6/2
f 8/7/3 10/8/3 2/9/3
f 8/7/4 6/10/4 10/8/4
f 1/3/5 4/11/5 3/1/5
f 10/8/6 11/12/6 2/9/6
f 4/11/7 12/13/7 6/10/7
f 11/12/8 13/14/8 2/9/8
f 6/10/9 14/15/9 10/8/9
f 12/13/10 1/3/10 16/16/10
f 12/13/11 14/15/11 6/10/11
f 18/17/12 15/18/12 91/19/12
f 10/8/13 14/15/13 19/20/13
f 16/16/14 17/21/14 12/13/14
f 13/14/15 18/17/15 5/22/15
f 1/3/16 9/6/16 20/23/16
f 11/12/17 19/20/17 21/24/17
f 17/21/18 22/25/18 19/20/18
f 17/21/19 16/16/19 23/26/19
f 7/5/20 24/27/20 9/6/20
f 13/14/21 29/28/21 18/17/21
f 22/25/22 23/26/22 27/29/22
f 24/27/23 25/30/23 20/23/23
f 26/31/24 29/28/24 13/14/24
f 27/29/25 26/31/25 21/24/25
f 23/26/26 25/30/26 34/32/26
f 27/29/27 31/33/27 26/31/27
f 91/34/28 15/18/28 32/35/28
f 26/31/29 31/33/29 30/36/29
f 33/37/30 34/32/30 25/30/30
f 34/32/31 35/38/31 28/39/31
f 24/27/32 7/5/32 36/40/32
f 34/32/33 37/41/33 35/38/33
f 29/28/34 30/36/34 38/42/34
f 35/38/35 40/43/35 31/33/35
f 33/37/36 37/41/36 34/32/36
f 40/43/37 41/44/37 31/33/37
f 37/41/38 39/45/38 35/38/38
f 41/44/39 40/43/39 43/46/39
f 36/40/40 42/47/40 33/37/40
f 40/43/41 39/45/41 43/46/41
f 7/5/42 44/48/42 36/40/42
f 30/36/43 45/49/43 46/50/43
f 37/41/44 42/47/44 47/51/44
f 43/46/45 48/52/45 41/44/45
f 47/51/46 52/53/46 39/45/46
f 38/42/47 50/54/47 15/18/47
f 52/53/48 48/52/48 43/46/48
f 46/50/49 53/55/49 38/42/49
f 38/42/50 53/55/50 50/54/50
f 49/56/51 52/53/51 47/51/51
f 50/54/52 32/35/52 15/18/52
f 44/48/53 54/57/53 42/47/53
f 48/52/54 55/58/54 51/59/54
f 51/59/55 55/58/55 56/60/55
f 51/59/56 57/61/56 46/50/56
f 46/50/57 57/61/57 53/55/57
f 49/56/58 58/62/58 52/53/58
f 55/58/59 58/62/59 60/63/59
f 44/48/60 64/64/60 54/57/60
f 56/60/61 61/65/61 57/61/61
f 58/62/62 59/66/62 62/67/62
f 32/35/63 50/54/63 66/68/63
f 61/65/64 69/69/64 50/54/64
f 63/70/65 65/71/65 60/63/65
f 65/71/66 67/72/66 56/60/66
f 64/64/67 70/73/67 59/66/67
f 50/54/68 74/74/68 66/68/68
f 61/65/69 67/72/69 69/69/69
f 62/67/70 71/75/70 63/70/70
f 50/54/71 69/69/71 74/74/71
f 68/76/72 72/77/72 67/72/72
f 62/67/73 70/73/73 73/78/73
f 66/68/74 91/79/74 32/35/74
f 68/76/75 71/75/75 75/80/75
f 73/78/76 79/81/76 71/75/76
f 71/75/77 79/81/77 75/80/77
f 64/64/78 76/82/78 70/73/78
f 75/80/79 77/83/79 72/77/79
f 7/5/80 80/84/80 64/64/80
f 73/78/81 76/82/81 82/85/81
f 75/80/82 81/86/82 77/83/82
f 73/78/83 82/85/83 83/87/83
f 73/78/84 83/87/84 79/81/84
f 83/88/85 84/89/85 79/90/85
f 77/91/86 85/92/86 74/93/86
f 81/94/87 86/95/87 77/91/87
f 84/89/88 88/96/88 81/94/88
f 82/97/89 89/98/89 83/88/89
f 83/88/90 89/98/90 87/99/90
f 66/100/91 85/92/91 91/19/91
f 89/98/92 93/101/92 87/99/92
f 80/102/93 94/103/93 82/97/93
f 90/104/94 95/105/94 89/98/94
f 86/95/95 92/106/95 97/107/95
f 92/106/96 93/101/96 99/108/96
f 99/108/97 97/107/97 92/106/97
f 96/109/98 101/110/98 95/105/98
f 78/4/99 98/2/99 80/102/99
f 94/103/100 98/2/100 3/1/100
f 94/103/101 3/1/101 96/109/101
f 97/107/102 99/108/102 2/9/102
f 101/110/103 8/7/103 100/111/103
f 96/109/104 6/10/104 101/110/104
f 101/110/105 6/10/105 8/7/105
f 8/7/106 2/9/106 99/108/106
f 1/3/107 98/2/107 9/6/107
f 4/11/108 1/3/108 12/13/108
f 2/9/109 13/14/109 5/22/109
f 91/19/110 5/22/110 18/17/110
f 10/8/111 19/20/111 11/12/111
f 12/13/112 17/21/112 14/15/112
f 14/15/113 17/21/113 19/20/113
f 1/3/114 20/23/114 16/16/114
f 13/14/115 11/12/115 21/24/115
f 9/6/116 24/27/116 20/23/116
f 19/20/117 22/25/117 21/24/117
f 20/23/118 25/30/118 16/16/118
f 22/25/119 17/21/119 23/26/119
f 13/14/120 21/24/120 26/31/120
f 23/26/121 16/16/121 25/30/121
f 22/25/122 27/29/122 21/24/122
f 23/26/123 34/32/123 28/39/123
f 27/29/124 23/26/124 28/39/124
f 24/27/125 36/40/125 25/30/125
f 26/31/126 30/36/126 29/28/126
f 25/30/127 36/40/127 33/37/127
f 15/18/128 18/17/128 29/28/128
f 27/29/129 28/39/129 35/38/129
f 27/29/130 35/38/130 31/33/130
f 15/18/131 29/28/131 38/42/131
f 30/36/132 31/33/132 41/44/132
f 40/43/133 35/38/133 39/45/133
f 33/37/134 42/47/134 37/41/134
f 30/36/135 41/44/135 45/49/135
f 30/36/136 46/50/136 38/42/136
f 36/40/137 44/48/137 42/47/137
f 39/45/138 37/41/138 47/51/138
f 41/44/139 48/52/139 45/49/139
f 39/45/140 52/53/140 43/46/140
f 42/47/141 54/57/141 49/56/141
f 47/51/142 42/47/142 49/56/142
f 48/52/143 51/59/143 45/49/143
f 45/49/144 51/59/144 46/50/144
f 48/52/145 52/53/145 55/58/145
f 57/61/146 51/59/146 56/60/146
f 55/58/147 52/53/147 58/62/147
f 49/56/148 54/57/148 59/66/148
f 49/56/149 59/66/149 58/62/149
f 56/60/150 55/58/150 60/63/150
f 54/57/151 64/64/151 59/66/151
f 53/55/152 57/61/152 61/65/152
f 58/62/153 62/67/153 63/70/153
f 60/63/154 58/62/154 63/70/154
f 56/60/155 60/63/155 65/71/155
f 53/55/156 61/65/156 50/54/156
f 44/48/157 7/5/157 64/64/157
f 61/65/158 56/60/158 67/72/158
f 65/71/159 68/76/159 67/72/159
f 59/66/160 70/73/160 62/67/160
f 65/71/161 63/70/161 71/75/161
f 65/71/162 71/75/162 68/76/162
f 69/69/163 67/72/163 72/77/163
f 71/75/164 62/67/164 73/78/164
f 72/77/165 68/76/165 75/80/165
f 73/78/166 70/73/166 76/82/166
f 69/69/167 72/77/167 77/83/167
f 69/69/168 77/83/168 74/74/168
f 76/82/169 64/64/169 80/84/169
f 75/112/170 79/90/170 84/89/170
f 75/112/171 84/89/171 81/94/171
f 74/93/172 85/92/172 66/100/172
f 80/102/173 7/113/173 78/4/173
f 84/89/174 83/88/174 87/99/174
f 88/96/175 84/89/175 87/99/175
f 76/114/176 80/102/176 82/97/176
f 81/94/177 88/96/177 86/95/177
f 82/97/178 90/104/178 89/98/178
f 77/91/179 86/95/179 85/92/179
f 88/96/180 92/106/180 86/95/180
f 88/96/181 87/99/181 93/101/181
f 82/97/182 94/103/182 90/104/182
f 89/98/183 95/105/183 93/101/183
f 92/106/184 88/96/184 93/101/184
f 80/102/185 98/2/185 94/103/185
f 90/104/186 94/103/186 96/109/186
f 86/95/187 97/107/187 85/92/187
f 90/104/188 96/109/188 95/105/188
f 91/19/189 85/92/189 5/22/189
f 85/92/190 97/107/190 5/22/190
f 99/108/191 93/101/191 100/111/191
f 93/101/192 95/105/192 101/110/192
f 93/101/193 101/110/193 100/111/193
f 99/108/194 100/111/194 8/7/194
f 78/4/195 9/6/195 98/2/195
f 97/107/196 2/9/196 5/22/196
f 96/109/197 4/11/197 6/10/197
f 96/109/198 3/1/198 4/11/198
