# Blender v2.90.1 OBJ File: ''
# www.blender.org
mtllib sphere5.mtl
o sphere_Sphere.005
v 0.065839 0.182406 -0.075825
v 0.055742 -0.104893 -0.170384
v 0.009273 -0.181367 -0.090353
v 0.023289 -0.000473 -0.206008
v 0.003042 0.200573 0.031096
v 0.129702 0.059759 -0.150680
v 0.094989 -0.179288 -0.040772
v 0.166620 -0.096337 -0.086472
v 0.205103 0.014358 -0.046473
v 0.109234 -0.163306 0.063376
v 0.171562 -0.062971 0.095771
v 0.191564 0.063737 0.046625
v 0.123731 0.167156 0.010548
v 0.140661 0.080003 0.126185
v 0.043285 0.162413 0.116158
v 0.053739 -0.014864 0.202824
v 0.068593 -0.122425 0.148573
v 0.041889 0.095520 0.177762
v -0.079103 -0.029191 0.189593
v -0.014977 -0.170074 0.117658
v -0.088249 0.095855 0.161727
v -0.075464 0.172539 0.084091
v -0.134040 -0.106942 0.121986
v -0.077978 -0.187716 0.017334
v -0.183799 0.074354 0.067127
v -0.184357 -0.098828 0.001702
v -0.128753 0.156252 -0.029686
v -0.198462 0.054612 0.003280
v -0.045085 0.195140 -0.031415
v -0.172365 -0.020840 -0.118424
v -0.147436 0.087001 -0.111407
v 0.007929 -0.203005 -0.008023
v -0.098503 -0.152661 -0.101765
v -0.072458 0.061472 -0.182740
v -0.016520 0.153867 -0.141030
v -0.053953 -0.079220 -0.181022
vt 0.891106 0.908254
vt 0.290616 0.935257
vt 0.627294 0.831756
vt 0.775709 0.756600
vt 0.636835 0.591558
vt 0.730478 0.496389
vt 0.703421 0.327827
vt 0.577129 0.344256
vt 0.542351 0.511229
vt 0.476644 0.784485
vt 0.466343 0.599140
vt 0.416240 0.402318
vt 0.401873 0.222640
vt 0.383759 0.624420
vt 0.295867 0.469596
vt 0.306074 0.790916
vt 0.288494 0.645802
vt 0.228724 0.192175
vt 0.248857 0.038199
vt 0.315672 0.292726
vt 0.170850 0.645068
vt 0.189087 0.453045
vt 0.128893 0.814439
vt 0.119203 0.328918
vt 0.044294 0.132443
vt 0.062790 0.621721
vt 0.013940 0.343727
vt 0.012834 0.603876
vt 0.008287 0.890181
vt 0.006696 0.762618
vt 0.982463 0.352943
vt 0.870937 0.235846
vt 0.980964 0.142073
vt 0.958098 0.771385
vt 0.897608 0.637074
vt 0.988648 0.565503
vt 0.904693 0.461861
vt 0.610778 0.057942
vt 0.798863 0.380862
vt 0.808508 0.587892
vt 0.562489 0.173598
vt 0.735371 0.157990
vn 0.0605 0.9893 -0.1326
vn 0.2160 0.4257 -0.8787
vn 0.5141 -0.1295 -0.8479
vn 0.6025 -0.1775 -0.7781
vn 0.7963 -0.0593 -0.6020
vn 0.8498 0.5067 -0.1452
vn 0.9397 -0.3400 0.0368
vn 0.8356 -0.5439 0.0769
vn 0.2656 0.9641 -0.0078
vn 0.7262 0.5959 0.3428
vn 0.6694 -0.0133 0.7428
vn 0.4417 0.6028 0.6645
vn 0.1734 -0.9445 0.2791
vn 0.2707 -0.8112 0.5184
vn -0.0677 -0.4567 0.8870
vn -0.1191 0.2077 0.9709
vn -0.0372 0.9051 0.4236
vn -0.2506 -0.5283 0.8112
vn -0.1028 -0.9667 0.2345
vn -0.4168 -0.8138 0.4049
vn -0.6251 0.6043 0.4940
vn -0.9169 -0.1384 0.3742
vn -0.9640 -0.0912 0.2496
vn -0.2620 0.9578 0.1185
vn -0.8226 0.5684 0.0131
vn -0.6263 -0.7705 -0.1188
vn -0.8357 0.4982 -0.2311
vn -0.9113 0.2328 -0.3397
vn -0.2375 -0.9422 -0.2364
vn -0.3911 0.8231 -0.4118
vn -0.5763 -0.4121 -0.7058
vn -0.0961 -0.7026 -0.7051
vn -0.2642 -0.0465 -0.9633
vn 0.0175 -0.3180 -0.9479
vn 0.3483 0.6138 -0.7085
vn 0.3329 -0.7708 -0.5432
vn 0.1666 -0.9543 -0.2481
vn 0.4645 -0.7000 -0.5424
vn 0.7112 0.5969 -0.3713
vn 0.7773 0.5366 -0.3286
vn 0.7560 -0.6545 -0.0030
vn 0.9791 -0.0824 0.1861
vn 0.2979 -0.9488 0.1049
vn 0.8467 0.0709 0.5273
vn 0.5494 0.7040 0.4501
vn 0.6105 -0.5601 0.5600
vn 0.2993 0.9154 0.2691
vn 0.5685 -0.3065 0.7634
vn 0.4787 0.2429 0.8437
vn -0.0375 -0.4679 0.8830
vn -0.1390 0.6724 0.7270
vn -0.0836 0.7158 0.6933
vn -0.7114 0.1029 0.6952
vn -0.7667 -0.0163 0.6417
vn -0.6741 0.7068 0.2146
vn -0.6443 -0.7324 0.2201
vn -0.4194 0.9053 0.0668
vn -0.9838 -0.0888 -0.1559
vn -0.7798 -0.4867 -0.3938
vn -0.4810 0.7200 -0.5002
vn -0.6400 0.1963 -0.7429
vn -0.4497 0.5792 -0.6799
vn -0.2242 -0.9416 -0.2511
vn -0.4949 -0.0757 -0.8656
vn -0.0374 0.9320 -0.3606
vn -0.1069 -0.6871 -0.7187
vn 0.0324 0.3949 -0.9182
usemtl green.005
s off
f 29/1/1 5/2/1 1/3/1
f 35/4/2 6/5/2 4/6/2
f 4/6/3 6/5/3 2/7/3
f 2/7/4 6/5/4 8/8/4
f 6/5/5 9/9/5 8/8/5
f 9/9/6 13/10/6 12/11/6
f 9/9/7 11/12/7 8/8/7
f 8/8/8 11/12/8 10/13/8
f 1/3/9 5/2/9 13/10/9
f 13/10/10 14/14/10 12/11/10
f 11/12/11 14/14/11 16/15/11
f 14/14/12 15/16/12 18/17/12
f 10/13/13 20/18/13 32/19/13
f 17/20/14 20/18/14 10/13/14
f 16/15/15 20/18/15 17/20/15
f 16/15/16 21/21/16 19/22/16
f 5/2/17 22/23/17 15/16/17
f 19/22/18 23/24/18 20/18/18
f 32/19/19 20/18/19 24/25/19
f 20/18/20 23/24/20 24/25/20
f 21/21/21 22/23/21 25/26/21
f 23/24/22 25/26/22 26/27/22
f 25/26/23 28/28/23 26/27/23
f 5/2/24 29/29/24 22/23/24
f 25/26/25 27/30/25 28/28/25
f 26/31/26 33/32/26 24/33/26
f 27/34/27 31/35/27 28/36/27
f 28/36/28 31/35/28 30/37/28
f 24/33/29 33/32/29 32/38/29
f 29/1/30 35/4/30 27/34/30
f 33/32/31 30/37/31 36/39/31
f 33/32/32 36/39/32 2/7/32
f 34/40/33 4/6/33 36/39/33
f 4/6/34 2/7/34 36/39/34
f 35/4/35 1/3/35 6/5/35
f 2/7/36 7/41/36 3/42/36
f 32/38/37 3/42/37 7/41/37
f 7/41/38 2/7/38 8/8/38
f 1/3/39 13/10/39 6/5/39
f 9/9/40 6/5/40 13/10/40
f 8/8/41 10/13/41 7/41/41
f 9/9/42 12/11/42 11/12/42
f 32/19/43 7/41/43 10/13/43
f 11/12/44 12/11/44 14/14/44
f 13/10/45 15/16/45 14/14/45
f 10/13/46 11/12/46 17/20/46
f 13/10/47 5/2/47 15/16/47
f 11/12/48 16/15/48 17/20/48
f 14/14/49 18/17/49 16/15/49
f 20/18/50 16/15/50 19/22/50
f 16/15/16 18/17/16 21/21/16
f 18/17/51 15/16/51 22/23/51
f 18/17/52 22/23/52 21/21/52
f 19/22/53 21/21/53 25/26/53
f 19/22/54 25/26/54 23/24/54
f 25/26/55 22/23/55 27/30/55
f 23/24/56 26/27/56 24/25/56
f 27/30/57 22/23/57 29/29/57
f 26/31/58 28/36/58 30/37/58
f 26/31/59 30/37/59 33/32/59
f 27/34/60 35/4/60 31/35/60
f 31/35/61 34/40/61 30/37/61
f 31/35/62 35/4/62 34/40/62
f 32/38/63 33/32/63 3/42/63
f 30/37/64 34/40/64 36/39/64
f 29/1/65 1/3/65 35/4/65
f 33/32/66 2/7/66 3/42/66
f 34/40/67 35/4/67 4/6/67
