# Blender v2.90.1 OBJ File: ''
# www.blender.org
mtllib sphere8.mtl
o sphere_Sphere.008
v 0.162892 -0.188171 -0.060279
v 0.132682 0.084016 0.175704
v -0.102825 -0.153825 0.137547
v -0.156715 0.131356 0.099613
v -0.185868 -0.063070 -0.147043
v 0.038878 0.203504 -0.135903
vt 0.481566 0.281733
vt 0.667848 0.755180
vt 0.352483 0.612105
vt 0.146627 0.268140
vt 0.099215 0.682790
vt 0.013940 0.343727
vt 0.897617 0.430474
vt 0.988648 0.565503
vt 0.980964 0.142073
vt 0.553585 0.291175
vn 0.9468 0.2643 -0.1837
vn 0.4487 -0.5565 0.6993
vn -0.2407 0.0832 0.9670
vn 0.0639 0.9381 0.3405
vn -0.9609 -0.1507 0.2323
vn -0.6950 0.6023 -0.3927
vn -0.2816 -0.9349 -0.2160
vn 0.1969 -0.1254 -0.9724
usemtl green.008
s off
f 1/1/1 6/2/1 2/3/1
f 2/3/2 3/4/2 1/1/2
f 2/3/3 4/5/3 3/4/3
f 6/2/4 4/5/4 2/3/4
f 3/4/5 4/5/5 5/6/5
f 6/2/6 5/7/6 4/8/6
f 3/9/7 5/7/7 1/10/7
f 5/7/8 6/2/8 1/10/8
