# Blender v2.90.1 OBJ File: ''
# www.blender.org
mtllib sphere7.mtl
o sphere_Sphere.007
v 0.101307 0.184890 -0.039952
v 0.030344 -0.194968 -0.116746
v 0.199976 -0.042469 -0.080471
v 0.134215 -0.124650 0.116268
v 0.132682 0.084016 0.175704
v -0.102825 -0.153825 0.137547
v -0.156715 0.131356 0.099613
v -0.163543 -0.136875 -0.059950
v -0.073105 0.201783 0.012733
v -0.152093 0.030853 -0.156728
v 0.035542 0.109908 -0.201663
vt 0.663168 0.203949
vt 0.730288 0.654063
vt 0.560150 0.425776
vt 0.557538 0.809868
vt 0.352483 0.612105
vt 0.378193 0.304281
vt 0.146627 0.268140
vt 0.502438 0.182877
vt 0.099215 0.682790
vt 0.689587 0.871477
vt 0.013940 0.343727
vt 0.872244 0.542281
vt 0.988648 0.565503
vt 0.980964 0.142073
vt 0.928152 0.295919
vn 0.4128 -0.2509 -0.8756
vn 0.9194 0.3903 0.0488
vn 0.1391 -0.9635 0.2287
vn 0.1191 -0.2712 0.9551
vn -0.2407 0.0832 0.9670
vn -0.0313 0.7910 0.6111
vn -0.9495 -0.1422 0.2797
vn -0.7619 0.5982 -0.2483
vn -0.2855 -0.9584 0.0055
vn -0.3719 -0.4447 -0.8148
vn -0.1177 -0.2646 -0.9571
vn 0.7572 0.4181 -0.5018
vn 0.6758 -0.7327 -0.0802
vn 0.9547 -0.0750 0.2878
vn 0.2048 0.8977 0.3901
vn -0.9982 0.0471 -0.0365
vn -0.4338 0.7275 -0.5316
vn -0.0351 0.9120 -0.4086
usemtl green.007
s off
f 2/1/1 11/2/1 3/3/1
f 3/3/2 1/4/2 5/5/2
f 4/6/3 6/7/3 2/8/3
f 5/5/4 6/7/4 4/6/4
f 5/5/5 7/9/5 6/7/5
f 9/10/6 7/9/6 5/5/6
f 6/7/7 7/9/7 8/11/7
f 9/10/8 10/12/8 7/13/8
f 6/14/9 8/15/9 2/1/9
f 8/15/10 10/12/10 2/1/10
f 10/12/11 11/2/11 2/1/11
f 3/3/12 11/2/12 1/4/12
f 3/3/13 4/6/13 2/8/13
f 3/3/14 5/5/14 4/6/14
f 1/4/15 9/10/15 5/5/15
f 8/15/16 7/13/16 10/12/16
f 9/10/17 11/2/17 10/12/17
f 9/10/18 1/4/18 11/2/18
